HIERARCHY
ROOT Hips
{
	OFFSET 0.000000 0.000000 0.000000
	CHANNELS 6 Xposition Yposition Zposition Zrotation Yrotation Xrotation 
	JOINT LHipJoint
	{
		OFFSET 0.000000 0.000000 0.000000
		CHANNELS 3 Zrotation Yrotation Xrotation
		JOINT LeftUpLeg
		{
			OFFSET 1.363060 -1.794630 0.839290
			CHANNELS 3 Zrotation Yrotation Xrotation
			JOINT LeftLeg
			{
				OFFSET 2.448110 -6.726130 0.000000
				CHANNELS 3 Zrotation Yrotation Xrotation
				JOINT LeftFoot
				{
					OFFSET 2.562200 -7.039590 0.000000
					CHANNELS 3 Zrotation Yrotation Xrotation
					JOINT LeftToeBase
					{
						OFFSET 0.157640 -0.433110 2.322550
						CHANNELS 3 Zrotation Yrotation Xrotation
						End Site
						{
							OFFSET 0.000000 0.000000 0.000000
						}
					}
				}
			}
		}
	}
	JOINT RHipJoint
	{
		OFFSET 0.000000 0.000000 0.000000
		CHANNELS 3 Zrotation Yrotation Xrotation
		JOINT RightUpLeg
		{
			OFFSET -1.305520 -1.794630 0.839290
			CHANNELS 3 Zrotation Yrotation Xrotation
			JOINT RightLeg
			{
				OFFSET -2.542530 -6.985550 0.000000
				CHANNELS 3 Zrotation Yrotation Xrotation
				JOINT RightFoot
				{
					OFFSET -2.568260 -7.056230 0.000000
					CHANNELS 3 Zrotation Yrotation Xrotation
					JOINT RightToeBase
					{
						OFFSET -0.164730 -0.452590 2.363150
						CHANNELS 3 Zrotation Yrotation Xrotation
						End Site
						{
							OFFSET 0.000000 0.000000 0.000000
						}
					}
				}
			}
		}
	}
	JOINT LowerBack
	{
		OFFSET 0.000000 0.000000 0.000000
		CHANNELS 3 Zrotation Yrotation Xrotation
		JOINT Spine
		{
			OFFSET 0.028270 2.035590 -0.193380
			CHANNELS 3 Zrotation Yrotation Xrotation
			JOINT Spine1
			{
				OFFSET 0.056720 2.048850 -0.042750
				CHANNELS 3 Zrotation Yrotation Xrotation
				JOINT Neck
				{
					OFFSET 0.000000 0.000000 0.000000
					CHANNELS 3 Zrotation Yrotation Xrotation
					JOINT Neck1
					{
						OFFSET -0.054170 1.746240 0.172020
						CHANNELS 3 Zrotation Yrotation Xrotation
						JOINT Head
						{
							OFFSET 0.104070 1.761360 -0.123970
							CHANNELS 3 Zrotation Yrotation Xrotation
							End Site
							{
								OFFSET 0.000000 0.000000 0.000000
							}
						}
					}
				}
				JOINT LeftShoulder
				{
					OFFSET 0.000000 0.000000 0.000000
					CHANNELS 3 Zrotation Yrotation Xrotation
					JOINT LeftArm
					{
						OFFSET 3.362410 1.200890 -0.311210
						CHANNELS 3 Zrotation Yrotation Xrotation
						JOINT LeftForeArm
						{
							OFFSET 4.983000 -0.000000 -0.000000
							CHANNELS 3 Zrotation Yrotation Xrotation
							JOINT LeftHand
							{
								OFFSET 3.483560 -0.000000 -0.000000
								CHANNELS 3 Zrotation Yrotation Xrotation
								JOINT LeftFingerBase
								{
									OFFSET 0.000000 0.000000 0.000000
									CHANNELS 3 Zrotation Yrotation Xrotation
									JOINT LeftHandIndex1
									{
										OFFSET 0.715260 -0.000000 -0.000000
										CHANNELS 3 Zrotation Yrotation Xrotation
										End Site
										{
											OFFSET 0.000000 0.000000 0.000000
										}
									}
								}
								JOINT LThumb
								{
									OFFSET 0.000000 0.000000 0.000000
									CHANNELS 3 Zrotation Yrotation Xrotation
									End Site
									{
										OFFSET 0.000000 0.000000 0.000000
									}
								}
							}
						}
					}
				}
				JOINT RightShoulder
				{
					OFFSET 0.000000 0.000000 0.000000
					CHANNELS 3 Zrotation Yrotation Xrotation
					JOINT RightArm
					{
						OFFSET -3.136600 1.374050 -0.404650
						CHANNELS 3 Zrotation Yrotation Xrotation
						JOINT RightForeArm
						{
							OFFSET -5.241900 -0.000000 -0.000000
							CHANNELS 3 Zrotation Yrotation Xrotation
							JOINT RightHand
							{
								OFFSET -3.444170 -0.000000 -0.000000
								CHANNELS 3 Zrotation Yrotation Xrotation
								JOINT RightFingerBase
								{
									OFFSET 0.000000 0.000000 0.000000
									CHANNELS 3 Zrotation Yrotation Xrotation
									JOINT RightHandIndex1
									{
										OFFSET -0.622530 -0.000000 -0.000000
										CHANNELS 3 Zrotation Yrotation Xrotation
										End Site
										{
											OFFSET 0.000000 0.000000 0.000000
										}
									}
								}
								JOINT RThumb
								{
									OFFSET 0.000000 0.000000 0.000000
									CHANNELS 3 Zrotation Yrotation Xrotation
									End Site
									{
										OFFSET 0.000000 0.000000 0.000000
									}
								}
							}
						}
					}
				}
			}
		}
	}
}
MOTION
Frames: 7
Frame Time: 0.008333
-0.148183 16.885102 -0.153611 -83.376902 86.656726 -64.495940 -13.102761 4.454302 1.945834 -6.822590 5.995299 -0.510298 -0.650135 0.774468 19.978541 0.148196 -2.344747 10.154458 -0.617200 -0.000001 -67.280600 6.888286 -2.625842 2.760775 15.712118 -2.472750 -40.717878 4.379749 -1.186643 19.501255 1.030616 5.802845 2.410408 0.591400 0.000000 -47.279300 8.734840 -3.010315 -5.221829 1.490394 -3.824676 -3.652495 -5.822567 -3.711936 1.188941 7.658536 -15.471446 -8.105706 -4.086488 -0.321204 -0.078747 0.000000 0.000000 0.000000 7.517495 9.598784 -1.427921 -67.287414 -4.389347 26.876827 -178.543012 -58.726268 -179.995070 -0.219532 -0.285227 0.003333 0.032730 0.580976 -0.000000 0.000000 0.000000 0.000000 0.000000 0.000000 0.000000 11.762978 -11.369790 -0.927519 71.294396 -4.106758 8.085249 0.384110 81.193339 0.013810 2.240956 3.255124 0.069553 0.017520 -0.254059 -0.000000 0.000000 0.000000 0.000000 0.000000 0.000000 0.000000 
0.065187 16.833936 -0.161387 -84.017939 86.558757 -65.407142 -13.253623 4.482677 1.899239 -6.351502 6.164853 -0.669447 -0.514073 0.900842 22.011989 0.170586 -2.931498 10.849434 -0.840600 0.000000 -66.376100 6.841251 -2.638337 2.628979 15.503928 -2.108859 -41.282157 4.082016 -1.600331 23.574403 0.827013 5.250489 0.051807 0.380200 -0.000000 -44.881100 8.964559 -2.938212 -5.062921 1.506196 -3.767614 -3.632222 -5.894747 -3.650914 1.141982 7.466547 -15.089561 -8.166460 -4.253783 -0.333542 -0.099783 0.000000 0.000000 0.000000 7.370690 9.838142 -1.364291 -67.300386 -4.128471 26.019346 -178.438975 -58.647956 -179.988731 -0.914077 -0.487557 0.010285 0.058721 0.589254 -0.000000 0.000000 0.000000 0.000000 0.000000 0.000000 0.000000 12.388403 -10.873597 -0.886153 70.845597 -3.828578 7.263528 0.459050 79.913163 0.008705 0.810273 3.014859 0.023431 0.040860 -0.247928 -0.000000 0.000000 0.000000 0.000000 0.000000 0.000000 0.000000 
0.271320 16.789710 -0.171972 -86.594836 86.461250 -68.295112 -13.442233 4.501452 1.836324 -5.773833 6.319601 -0.943920 -0.370972 1.038385 24.241897 0.205901 -3.553070 11.608898 -1.097700 -0.000000 -64.703300 6.780851 -2.632998 2.432942 15.384959 -1.961727 -41.479461 3.811922 -1.927704 27.121489 0.638369 4.750974 -2.023495 0.231001 0.000000 -43.326199 9.171650 -2.888436 -4.817721 1.515802 -3.726345 -3.602849 -5.969744 -3.607692 1.068672 7.323196 -14.656609 -8.190271 -4.419062 -0.345597 -0.112754 0.000000 0.000000 0.000000 7.241642 9.996995 -1.298777 -67.480333 -3.842124 25.180801 -178.365807 -58.861008 -179.983151 -1.522550 -0.615981 0.017877 0.080978 0.593443 -0.000000 0.000000 0.000000 0.000000 0.000000 0.000000 0.000000 13.056216 -10.364692 -0.830710 70.400971 -3.444490 6.500777 0.534606 78.515868 0.002985 -0.792199 2.772961 -0.021006 0.065017 -0.241968 -0.000000 0.000000 0.000000 0.000000 0.000000 0.000000 0.000000 
0.470738 16.753647 -0.185243 -91.072515 86.332443 -73.104990 -13.661803 4.512776 1.764453 -5.080270 6.447315 -1.356746 -0.227167 1.184879 26.637614 0.257177 -4.140552 12.388136 -1.368300 -0.000000 -62.349800 6.702307 -2.620316 2.188147 15.386767 -2.026832 -41.301365 3.588694 -2.158581 29.987383 0.467938 4.276920 -3.776748 0.127600 -0.000000 -42.729900 9.373200 -2.853701 -4.512337 1.522182 -3.696148 -3.567766 -6.047683 -3.577230 0.975794 7.220894 -14.195103 -8.180033 -4.577110 -0.356924 -0.118057 0.000000 0.000000 0.000000 7.113965 10.081559 -1.233972 -67.801916 -3.562203 24.402496 -178.331046 -59.374502 -179.978939 -1.978900 -0.648008 0.023343 0.096280 0.592730 -0.000000 0.000000 0.000000 0.000000 0.000000 0.000000 0.000000 13.737981 -9.867902 -0.763579 69.984425 -2.964221 5.818543 0.608084 77.027522 -0.003013 -2.482944 2.558631 -0.061065 0.088618 -0.236469 -0.000000 0.000000 0.000000 0.000000 0.000000 0.000000 0.000000 
0.664245 16.726254 -0.200324 -97.142568 86.142261 -79.509141 -13.891201 4.521211 1.694692 -4.296773 6.518470 -1.917475 -0.091068 1.339468 29.153198 0.325488 -4.599926 13.138180 -1.618400 -0.000001 -59.487000 6.614130 -2.601977 1.907615 15.506215 -2.302004 -40.791341 3.418285 -2.297661 32.137022 0.314280 3.811068 -5.229366 0.057900 -0.000000 -43.016800 9.570129 -2.826637 -4.175250 1.524315 -3.671277 -3.530324 -6.130741 -3.553165 0.869689 7.153470 -13.725150 -8.139280 -4.723652 -0.367205 -0.116110 0.000000 0.000000 0.000000 6.982157 10.100579 -1.173141 -68.226998 -3.317158 23.720601 -178.340364 -60.188155 -179.976683 -2.219371 -0.568147 0.024207 0.102003 0.586694 -0.000000 0.000000 0.000000 0.000000 0.000000 0.000000 0.000000 14.411303 -9.401234 -0.689187 69.622099 -2.413883 5.230106 0.676453 75.494371 -0.008916 -4.168670 2.395557 -0.096544 0.110357 -0.231736 -0.000000 0.000000 0.000000 0.000000 0.000000 0.000000 0.000000 
0.852660 16.707489 -0.215984 -104.299317 85.865380 -86.991678 -14.101476 4.530355 1.635711 -3.470979 6.500775 -2.614788 0.030257 1.502569 31.733825 0.409450 -4.832962 13.810690 -1.806000 -0.000000 -56.369600 6.534006 -2.574121 1.600698 15.711569 -2.784197 -40.009891 3.297467 -2.356928 33.610895 0.173027 3.340625 -6.433612 0.013500 -0.000000 -43.957300 9.752519 -2.801961 -3.827426 1.519424 -3.647026 -3.491820 -6.220747 -3.530039 0.757623 7.113858 -13.275000 -8.074864 -4.854463 -0.376131 -0.108220 0.000000 0.000000 0.000000 6.846333 10.062351 -1.120149 -68.709678 -3.128260 23.160595 -178.396435 -61.288214 -179.976890 -2.188676 -0.370813 0.019781 0.096541 0.575419 0.000000 0.000000 0.000000 0.000000 0.000000 0.000000 0.000000 15.054690 -8.989146 -0.612981 69.341973 -1.813178 4.752369 0.737747 73.965418 -0.014372 -5.757851 2.302927 -0.128544 0.129261 -0.228070 -0.000000 0.000000 0.000000 0.000000 0.000000 0.000000 0.000000 
1.036972 16.696894 -0.231206 -111.971819 85.473749 -94.973877 -14.268693 4.539357 1.592558 -2.642826 6.375008 -3.433825 0.134498 1.673643 34.329609 0.505919 -4.765339 14.358784 -1.891900 -0.000000 -53.297800 6.477389 -2.536053 1.279466 15.966200 -3.446925 -39.015127 3.219306 -2.350069 34.477013 0.037126 2.841965 -7.442574 -0.011600 -0.000001 -45.251699 9.916830 -2.775921 -3.487072 1.507210 -3.620660 -3.453091 -6.317806 -3.504562 0.646631 7.090494 -12.874626 -7.995366 -4.965725 -0.383451 -0.096198 0.000000 0.000000 0.000000 6.703729 9.974122 -1.077585 -69.202309 -3.006161 22.735404 -178.497152 -62.645595 -179.979918 -1.848089 -0.060711 0.011462 0.079509 0.559504 0.000000 0.000000 0.000000 0.000000 0.000000 0.000000 0.000000 15.642223 -8.655663 -0.540640 69.168245 -1.176030 4.402740 0.791048 72.490797 -0.019096 -7.167885 2.293566 -0.159360 0.144723 -0.225744 -0.000000 0.000000 0.000000 0.000000 0.000000 0.000000 0.000000 
